HIERARCHY
ROOT joint_Root
{
	OFFSET 0.0 0.0 0.0
	CHANNELS 6 Xposition Yposition Zposition Zrotation Xrotation Yrotation 
	JOINT Hips
	{
		OFFSET -0.726466 93.3139 -2.00062
		CHANNELS 6 Xposition Yposition Zposition Zrotation Xrotation Yrotation 
		JOINT Spine
		{
			OFFSET 15.7357 0.0 0.0
			CHANNELS 6 Xposition Yposition Zposition Zrotation Xrotation Yrotation 
			JOINT Chest
			{
				OFFSET 8.98455 -0.406207 0.0
				CHANNELS 6 Xposition Yposition Zposition Zrotation Xrotation Yrotation 
				JOINT Neck
				{
					OFFSET 16.3773 0.0 0.0
					CHANNELS 6 Xposition Yposition Zposition Zrotation Xrotation Yrotation 
					JOINT Head
					{
						OFFSET 6.45672 0.0 0.0
						CHANNELS 6 Xposition Yposition Zposition Zrotation Xrotation Yrotation 
						End Site
						{
							OFFSET 0.0 0.0 0.0
						}
					}
				}
				JOINT Shoulder_L
				{
					OFFSET 12.9942 -0.242716 4.98039
					CHANNELS 6 Xposition Yposition Zposition Zrotation Xrotation Yrotation 
					JOINT UpperArm_L
					{
						OFFSET 5.34809 0.0 0.0
						CHANNELS 6 Xposition Yposition Zposition Zrotation Xrotation Yrotation 
						JOINT LowerArm_L
						{
							OFFSET 24.3286 1.87007e-05 0.0
							CHANNELS 6 Xposition Yposition Zposition Zrotation Xrotation Yrotation 
							JOINT Hand_L
							{
								OFFSET 22.2916 0.0 0.0
								CHANNELS 6 Xposition Yposition Zposition Zrotation Xrotation Yrotation 
								End Site
								{
									OFFSET 0.0 0.0 0.0
								}
							}
						}
					}
				}
				JOINT Shoulder_R
				{
					OFFSET 12.9945 -0.242716 -4.98039
					CHANNELS 6 Xposition Yposition Zposition Zrotation Xrotation Yrotation 
					JOINT UpperArm_R
					{
						OFFSET -5.34813 0.0 0.0
						CHANNELS 6 Xposition Yposition Zposition Zrotation Xrotation Yrotation 
						JOINT LowerArm_R
						{
							OFFSET -24.3289 0.000322201 0.0
							CHANNELS 6 Xposition Yposition Zposition Zrotation Xrotation Yrotation 
							JOINT Hand_R
							{
								OFFSET -22.2915 -0.000108084 0.0
								CHANNELS 6 Xposition Yposition Zposition Zrotation Xrotation Yrotation 
								End Site
								{
									OFFSET 0.0 0.0 0.0
								}
							}
						}
					}
				}
			}
		}
		JOINT UpperLeg_L
		{
			OFFSET -2.19248 -6.46944 0.0
			CHANNELS 6 Xposition Yposition Zposition Zrotation Xrotation Yrotation 
			JOINT LowerLeg_L
			{
				OFFSET 39.0811 0.0 -1.23785e-05
				CHANNELS 6 Xposition Yposition Zposition Zrotation Xrotation Yrotation 
				JOINT Foot_L
				{
					OFFSET 40.9854 0.0 -1.26872e-05
					CHANNELS 6 Xposition Yposition Zposition Zrotation Xrotation Yrotation 
					JOINT Toes_L
					{
						OFFSET 11.7543 0.0 0.0
						CHANNELS 6 Xposition Yposition Zposition Zrotation Xrotation Yrotation 
						End Site
						{
							OFFSET 0.0 0.0 0.0
						}
					}
				}
			}
		}
		JOINT UpperLeg_R
		{
			OFFSET -2.19251 6.46944 0.0
			CHANNELS 6 Xposition Yposition Zposition Zrotation Xrotation Yrotation 
			JOINT LowerLeg_R
			{
				OFFSET -39.0811 -0.00228153 -0.0401928
				CHANNELS 6 Xposition Yposition Zposition Zrotation Xrotation Yrotation 
				JOINT Foot_R
				{
					OFFSET -40.9854 0.0 0.0
					CHANNELS 6 Xposition Yposition Zposition Zrotation Xrotation Yrotation 
					JOINT Toes_R
					{
						OFFSET -11.7543 0.0 0.0
						CHANNELS 6 Xposition Yposition Zposition Zrotation Xrotation Yrotation 
						End Site
						{
							OFFSET 0.0 0.0 0.0
						}
					}
				}
			}
		}
	}
}
MOTION
Frames:	4
Frame Time:	0.0333333
0.000000 0.000000 0.000000 0.000000 0.000000 -0.000000 -0.211034 92.182400 0.223865 88.067700 -0.510918 3.974470 15.735700 0.000005 -0.000001 82.285600 86.625700 -81.945400 8.984550 -0.406207 -0.000000 -1.075750 -0.931943 0.671313 16.377300 -0.000001 -0.000001 1.396520 -2.698360 1.402490 6.456720 -0.000001 -0.000000 4.889210 -3.062000 -1.058950 12.994200 -0.242716 4.980390 -87.738600 -6.499530 -70.768000 5.348090 -0.000007 -0.000001 -64.406900 -30.867400 -68.381800 24.328600 0.000019 0.000005 18.627100 1.810190 -84.637100 22.291600 -0.000001 0.000005 46.357700 5.666250 -16.756100 12.994500 -0.242716 -4.980390 90.833500 -2.460440 -71.279200 -5.348130 -0.000001 -0.000004 -65.441600 -30.580500 -80.029500 -24.328900 0.000322 -0.000009 23.868900 4.965350 -78.926500 -22.291500 -0.000108 -0.000004 48.583600 5.485340 -5.972340 -2.192480 -6.469440 -0.000000 -175.807000 -7.100440 -1.961250 39.081100 -0.000007 -0.000012 -0.102897 0.241634 23.066200 40.985400 -0.000006 -0.000013 0.042511 2.992040 -67.341600 11.754300 -0.000000 0.000003 -0.000040 -0.000470 -16.595900 -2.192510 6.469440 -0.000001 179.061000 15.714000 -178.443000 -39.081100 -0.002282 -0.040193 0.007682 -0.012551 19.153400 -40.985400 0.000008 0.000006 4.499140 6.201020 -67.179900 -11.754300 -0.000006 -0.000006 -0.005267 -0.064027 -19.178400
0.000000 0.000000 0.000000 0.000000 0.000000 -0.000000 -0.194205 92.206600 0.214790 88.055100 -0.600010 3.712980 15.735700 0.000005 -0.000001 82.402300 86.686000 -82.063900 8.984550 -0.406207 -0.000000 -1.193580 -0.902583 0.667144 16.377300 -0.000001 -0.000001 1.332060 -2.675560 1.432680 6.456720 -0.000001 -0.000000 4.541420 -3.099650 -1.087730 12.994200 -0.242716 4.980390 -87.642600 -6.766370 -70.740100 5.348090 -0.000007 -0.000001 -71.847200 -33.321300 -70.504200 24.328600 0.000019 0.000005 10.539100 1.610290 -81.394300 22.291600 -0.000001 0.000005 44.864800 5.630580 -13.318900 12.994500 -0.242716 -4.980390 90.949300 -2.789800 -71.200000 -5.348130 -0.000001 -0.000004 -74.339100 -31.441300 -82.705500 -24.328900 0.000322 -0.000009 16.365100 4.574510 -74.796700 -22.291500 -0.000108 -0.000004 50.162000 5.382680 -2.421490 -2.192480 -6.469440 -0.000000 -175.847000 -7.133820 -2.154770 39.081100 -0.000007 -0.000012 -0.102273 0.241888 22.919300 40.985400 -0.000006 -0.000013 0.029825 2.892670 -67.259900 11.754300 -0.000000 0.000003 -0.000043 -0.000498 -16.596900 -2.192510 6.469440 -0.000001 179.144000 15.674300 -178.647000 -39.081100 -0.002282 -0.040193 0.008607 -0.015369 18.972500 -40.985400 0.000008 0.000006 4.490600 6.241980 -67.067900 -11.754300 -0.000006 -0.000006 -0.004985 -0.061319 -19.068000
0.000000 0.000000 0.000000 0.000000 0.000000 -0.000000 -0.165068 92.206200 0.260054 88.057700 -0.737533 3.625580 15.735700 0.000005 -0.000001 82.568500 86.691500 -82.230900 8.984550 -0.406207 -0.000000 -1.201950 -0.882081 0.665757 16.377300 -0.000001 -0.000001 1.265100 -2.645950 1.438750 6.456720 -0.000001 -0.000000 4.465450 -3.035990 -1.076500 12.994200 -0.242716 4.980390 -87.544100 -7.016230 -70.652400 5.348090 -0.000007 -0.000001 -79.602900 -35.210300 -73.483800 24.328600 0.000019 0.000005 3.016990 0.599973 -78.733400 22.291600 -0.000001 0.000005 43.352200 5.555270 -8.955740 12.994500 -0.242716 -4.980390 91.031700 -3.029890 -71.185800 -5.348130 -0.000001 -0.000004 -81.714400 -32.077500 -85.307800 -24.328900 0.000322 -0.000009 11.690600 3.930780 -71.669600 -22.291500 -0.000108 -0.000004 50.859700 5.185790 3.062410 -2.192480 -6.469440 -0.000000 -175.886000 -7.233230 -2.171290 39.081100 -0.000007 -0.000012 -0.099578 0.235923 22.883700 40.985400 -0.000006 -0.000013 0.041968 2.823480 -67.289400 11.754300 -0.000000 0.000003 -0.000042 -0.000484 -16.596400 -2.192510 6.469440 -0.000001 179.137000 15.603900 -178.715000 -39.081100 -0.002282 -0.040193 0.008398 -0.014769 18.962500 -40.985400 0.000008 0.000006 4.483390 6.288420 -67.076500 -11.754300 -0.000006 -0.000006 -0.005256 -0.063922 -19.174100
0.000000 0.000000 0.000000 0.000000 0.000000 -0.000000 -0.133644 92.216400 0.296692 88.032200 -0.821589 3.544940 15.735700 0.000005 -0.000001 82.711800 86.718400 -82.352600 8.984550 -0.406207 -0.000000 -1.253120 -0.860694 0.708717 16.377300 -0.000001 -0.000001 1.340530 -2.602700 1.425000 6.456720 -0.000001 -0.000000 4.498070 -3.034570 -1.040200 12.994200 -0.242716 4.980390 -87.486700 -7.161750 -70.603700 5.348090 -0.000007 -0.000001 -86.762300 -35.927100 -76.608200 24.328600 0.000019 0.000005 -1.336360 -0.296750 -77.486300 22.291600 -0.000001 0.000005 44.501300 5.486030 -5.986240 12.994500 -0.242716 -4.980390 91.074900 -3.153130 -71.164800 -5.348130 -0.000001 -0.000004 -86.191200 -32.484600 -86.702100 -24.328900 0.000322 -0.000009 9.550700 3.364150 -70.775800 -22.291500 -0.000108 -0.000004 51.404900 4.998820 7.335150 -2.192480 -6.469440 -0.000000 -175.881000 -7.300470 -2.172690 39.081100 -0.000007 -0.000012 -0.101423 0.241250 22.802200 40.985400 -0.000006 -0.000013 0.056500 2.813630 -67.284000 11.754300 -0.000000 0.000003 -0.000046 -0.000529 -16.598100 -2.192510 6.469440 -0.000001 179.195000 15.539000 -178.734000 -39.081100 -0.002282 -0.040193 0.016626 -0.038903 18.877200 -40.985400 0.000008 0.000006 4.757870 6.263570 -67.096900 -11.754300 -0.000006 -0.000006 -0.005294 -0.064282 -19.188800
